<?xml version="1.0"?>
<svg xmlns="http://www.w3.org/2000/svg" width="1050" height="800"
        viewBox="0 0 32.375 19.5">

  <defs>
    <style>

use:not([fill]) {fill: #ECECEC;}

text.row_or_col {
    font-size: 0.3px;
    font-weight: bold;
    font-family: sans;
    fill: white;
    stroke: black;
    stroke-width: 0.005px;
    paint-order: stroke;
}

    </style>

    <polygon id="tile" points=" 0.35,0.35 0.68,-0.35 0.35,-0.68 -0.35,-0.35 -0.68,0.35 -0.35,0.68 " stroke-width="0.01" stroke="black"/>
  </defs>
  <g transform="matrix(1.73205080756 0 0.86602540378 1.5 3.46410161512 2.5) translate(0, 0)">
    <g>
      <polygon fill="red" points="-1,-1 0,0 10,0 11,-1"/>
      <polygon fill="red" points="-1,11 0,10 10,10 11,11"/>
      <polygon fill="blue" points="-1,-1 0,0 0,10 -1,11"/>
      <polygon fill="blue" points="11,-1 10,0 10,10 11,11"/>`
    </g>
<text class="row_or_col" x="0" y="-0.65">A</text>
<text class="row_or_col" x="1" y="-0.65">B</text>
<text class="row_or_col" x="2" y="-0.65">C</text>
<text class="row_or_col" x="3" y="-0.65">D</text>
<text class="row_or_col" x="4" y="-0.65">E</text>
<text class="row_or_col" x="5" y="-0.65">F</text>
<text class="row_or_col" x="6" y="-0.65">G</text>
<text class="row_or_col" x="7" y="-0.65">H</text>
<text class="row_or_col" x="8" y="-0.65">I</text>
<text class="row_or_col" x="9" y="-0.65">J</text>
<text class="row_or_col" x="10" y="-0.65">K</text>
<text class="row_or_col" x="-0.95" y="0">1</text>
<text class="row_or_col" x="-0.95" y="1">2</text>
<text class="row_or_col" x="-0.95" y="2">3</text>
<text class="row_or_col" x="-0.95" y="3">4</text>
<text class="row_or_col" x="-0.95" y="4">5</text>
<text class="row_or_col" x="-0.95" y="5">6</text>
<text class="row_or_col" x="-0.95" y="6">7</text>
<text class="row_or_col" x="-0.95" y="7">8</text>
<text class="row_or_col" x="-0.95" y="8">9</text>
<text class="row_or_col" x="-0.95" y="9">10</text>
<text class="row_or_col" x="-0.95" y="10">11</text>
<use href="#tile" x="0" y="0" />
<use href="#tile" x="0" y="1"  fill="red" />
<use href="#tile" x="0" y="2" />
<use href="#tile" x="0" y="3"  fill="red" />
<use href="#tile" x="0" y="4" />
<use href="#tile" x="0" y="5"  fill="red" />
<use href="#tile" x="0" y="6"  fill="blue" />
<use href="#tile" x="0" y="7" />
<use href="#tile" x="0" y="8" />
<use href="#tile" x="0" y="9" />
<use href="#tile" x="0" y="10" />
<use href="#tile" x="1" y="0" />
<use href="#tile" x="1" y="1" />
<use href="#tile" x="1" y="2"  fill="red" />
<use href="#tile" x="1" y="3" />
<use href="#tile" x="1" y="4"  fill="red" />
<use href="#tile" x="1" y="5" />
<use href="#tile" x="1" y="6"  fill="blue" />
<use href="#tile" x="1" y="7" />
<use href="#tile" x="1" y="8" />
<use href="#tile" x="1" y="9" />
<use href="#tile" x="1" y="10" />
<use href="#tile" x="2" y="0" />
<use href="#tile" x="2" y="1" />
<use href="#tile" x="2" y="2" />
<use href="#tile" x="2" y="3" />
<use href="#tile" x="2" y="4" />
<use href="#tile" x="2" y="5"  fill="blue" />
<use href="#tile" x="2" y="6" />
<use href="#tile" x="2" y="7" />
<use href="#tile" x="2" y="8" />
<use href="#tile" x="2" y="9" />
<use href="#tile" x="2" y="10" />
<use href="#tile" x="3" y="0"  fill="red" />
<use href="#tile" x="3" y="1"  fill="blue" />
<use href="#tile" x="3" y="2" />
<use href="#tile" x="3" y="3" />
<use href="#tile" x="3" y="4" />
<use href="#tile" x="3" y="5" />
<use href="#tile" x="3" y="6"  fill="red" />
<use href="#tile" x="3" y="7" />
<use href="#tile" x="3" y="8"  fill="blue" />
<use href="#tile" x="3" y="9" />
<use href="#tile" x="3" y="10" />
<use href="#tile" x="4" y="0"  fill="red" />
<use href="#tile" x="4" y="1" />
<use href="#tile" x="4" y="2" />
<use href="#tile" x="4" y="3" />
<use href="#tile" x="4" y="4" />
<use href="#tile" x="4" y="5"  fill="red" />
<use href="#tile" x="4" y="6"  fill="blue" />
<use href="#tile" x="4" y="7" />
<use href="#tile" x="4" y="8" />
<use href="#tile" x="4" y="9" />
<use href="#tile" x="4" y="10" />
<use href="#tile" x="5" y="0" />
<use href="#tile" x="5" y="1"  fill="blue" />
<use href="#tile" x="5" y="2" />
<use href="#tile" x="5" y="3"  fill="blue" />
<use href="#tile" x="5" y="4"  fill="blue" />
<use href="#tile" x="5" y="5" />
<use href="#tile" x="5" y="6"  fill="red" />
<use href="#tile" x="5" y="7"  fill="red" />
<use href="#tile" x="5" y="8"  fill="blue" />
<use href="#tile" x="5" y="9" />
<use href="#tile" x="5" y="10" />
<use href="#tile" x="6" y="0"  fill="red" />
<use href="#tile" x="6" y="1"  fill="blue" />
<use href="#tile" x="6" y="2"  fill="red" />
<use href="#tile" x="6" y="3"  fill="blue" />
<use href="#tile" x="6" y="4" />
<use href="#tile" x="6" y="5"  fill="blue" />
<use href="#tile" x="6" y="6" />
<use href="#tile" x="6" y="7" />
<use href="#tile" x="6" y="8" />
<use href="#tile" x="6" y="9" />
<use href="#tile" x="6" y="10" />
<use href="#tile" x="7" y="0" />
<use href="#tile" x="7" y="1"  fill="red" />
<use href="#tile" x="7" y="2"  fill="red" />
<use href="#tile" x="7" y="3" />
<use href="#tile" x="7" y="4" />
<use href="#tile" x="7" y="5" />
<use href="#tile" x="7" y="6"  fill="blue" />
<use href="#tile" x="7" y="7" />
<use href="#tile" x="7" y="8"  fill="red" />
<use href="#tile" x="7" y="9" />
<use href="#tile" x="7" y="10" />
<use href="#tile" x="8" y="0" />
<use href="#tile" x="8" y="1" />
<use href="#tile" x="8" y="2" />
<use href="#tile" x="8" y="3" />
<use href="#tile" x="8" y="4" />
<use href="#tile" x="8" y="5" />
<use href="#tile" x="8" y="6" />
<use href="#tile" x="8" y="7" />
<use href="#tile" x="8" y="8" />
<use href="#tile" x="8" y="9" />
<use href="#tile" x="8" y="10" />
<use href="#tile" x="9" y="0" />
<use href="#tile" x="9" y="1" />
<use href="#tile" x="9" y="2" />
<use href="#tile" x="9" y="3" />
<use href="#tile" x="9" y="4" />
<use href="#tile" x="9" y="5" />
<use href="#tile" x="9" y="6" />
<use href="#tile" x="9" y="7"  fill="blue" />
<use href="#tile" x="9" y="8" />
<use href="#tile" x="9" y="9" />
<use href="#tile" x="9" y="10" />
<use href="#tile" x="10" y="0"  fill="red" />
<use href="#tile" x="10" y="1" />
<use href="#tile" x="10" y="2"  fill="blue" />
<use href="#tile" x="10" y="3" />
<use href="#tile" x="10" y="4" />
<use href="#tile" x="10" y="5" />
<use href="#tile" x="10" y="6" />
<use href="#tile" x="10" y="7"  fill="red" />
<use href="#tile" x="10" y="8"  fill="red" />
<use href="#tile" x="10" y="9" />
<use href="#tile" x="10" y="10" />
</g></svg>
